<?xml version="1.0" encoding="UTF-8" standalone="no"?>
<!-- Created with Inkscape (http://www.inkscape.org/) -->
<svg
   xmlns:dc="http://purl.org/dc/elements/1.1/"
   xmlns:cc="http://web.resource.org/cc/"
   xmlns:rdf="http://www.w3.org/1999/02/22-rdf-syntax-ns#"
   xmlns:svg="http://www.w3.org/2000/svg"
   xmlns="http://www.w3.org/2000/svg"
   xmlns:sodipodi="http://inkscape.sourceforge.net/DTD/sodipodi-0.dtd"
   xmlns:inkscape="http://www.inkscape.org/namespaces/inkscape"
   width="744.09448819"
   height="1052.3622047"
   id="svg2132"
   sodipodi:version="0.32"
   inkscape:version="0.43"
   sodipodi:docbase="/home/laura/recursosgraficos/imagenes"
   sodipodi:docname="logobeppofinal.svg">
  <defs
     id="defs2134" />
  <sodipodi:namedview
     id="base"
     pagecolor="#ffffff"
     bordercolor="#666666"
     borderopacity="1.0"
     inkscape:pageopacity="0.0"
     inkscape:pageshadow="2"
     inkscape:zoom="1.4"
     inkscape:cx="323.79595"
     inkscape:cy="751.64767"
     inkscape:document-units="px"
     inkscape:current-layer="layer1"
     inkscape:window-width="874"
     inkscape:window-height="589"
     inkscape:window-x="26"
     inkscape:window-y="123" />
  <metadata
     id="metadata2137">
    <rdf:RDF>
      <cc:Work
         rdf:about="">
        <dc:format>image/svg+xml</dc:format>
        <dc:type
           rdf:resource="http://purl.org/dc/dcmitype/StillImage" />
      </cc:Work>
    </rdf:RDF>
  </metadata>
  <g
     inkscape:label="Layer 1"
     inkscape:groupmode="layer"
     id="layer1">
    <path
       style="font-size:24.64226151px;font-style:normal;font-variant:normal;font-weight:bold;font-stretch:normal;text-align:start;line-height:125%;writing-mode:lr-tb;text-anchor:start;fill:#17ace6;fill-opacity:1;stroke:none;stroke-width:1px;stroke-linecap:butt;stroke-linejoin:miter;stroke-opacity:1;font-family:Teen"
       d="M 166.3167,233.8053 C 165.2156,233.92768 164.29881,233.99731 163.52401,234.03803 C 162.74915,234.07873 162.1148,234.11584 161.58464,234.1156 C 161.01369,234.11584 160.44891,234.07873 159.87799,234.03803 C 159.30707,233.99731 158.66866,233.9643 158.0162,233.88287 C 158.38322,237.75714 158.66963,241.3586 158.79194,244.74335 C 158.9143,248.08738 158.94706,251.41441 158.94709,254.59535 C 158.94709,258.30627 158.84073,261.87496 158.63679,265.30067 C 158.47367,268.72612 158.19125,272.00859 157.78347,275.23025 C 158.84378,275.1081 159.97336,275.03822 161.19676,274.99752 C 162.461,274.95656 163.91371,274.91995 165.46337,274.91995 C 165.46337,274.22661 165.35698,273.6291 165.15307,273.05814 C 164.98993,272.4872 164.88351,271.52974 164.84277,270.26545 C 167.77901,273.65045 171.27406,275.38539 175.39295,275.38539 C 177.79901,275.38539 179.99247,274.92305 181.90924,274.06662 C 183.82591,273.2102 185.45064,272.01107 186.79645,270.42061 C 188.1422,268.78943 189.12855,266.77186 189.82187,264.44735 C 190.5559,262.08212 190.90791,259.43403 190.90791,256.45714 C 190.90789,254.01024 190.51912,251.78378 189.74428,249.78571 C 189.01019,247.74667 187.98705,246.01557 186.64129,244.5882 C 185.29546,243.12011 183.74437,242.02748 181.90924,241.25249 C 180.07405,240.43702 178.01977,240.01128 175.8584,240.01128 C 172.10651,240.01128 168.75471,241.70961 165.6961,245.05364 C 165.73686,243.5446 165.76968,241.84242 165.85125,240.08886 C 165.97358,238.29459 166.11282,236.21149 166.3167,233.8053 z M 174.07418,247.14817 C 174.35769,247.13166 174.70686,247.14819 175.00508,247.14817 C 180.51053,247.14841 183.22801,250.50796 183.22801,257.15531 C 183.22797,264.86315 180.58008,268.71396 175.23779,268.71396 C 172.21998,268.71396 169.85049,267.76059 168.17849,265.8437 C 166.50645,263.92703 165.69613,261.34498 165.6961,258.16378 C 165.6961,254.57524 166.43687,251.8168 167.94576,249.94086 C 169.31323,248.24079 171.33349,247.30771 174.07418,247.14817 z "
       id="path4294"
       inkscape:export-filename="/home/laura/recursosgraficos/imagenes/logobeppofinalmasgrande.png"
       inkscape:export-xdpi="431.86496"
       inkscape:export-ydpi="431.86496" />
    <path
       style="font-size:24.64226151px;font-style:normal;font-variant:normal;font-weight:bold;font-stretch:normal;text-align:start;line-height:125%;writing-mode:lr-tb;text-anchor:start;fill:#17ace6;fill-opacity:1;stroke:none;stroke-width:1px;stroke-linecap:butt;stroke-linejoin:miter;stroke-opacity:1;font-family:Teen"
       d="M 209.21557,239.93371 C 203.78776,240.19804 199.65844,242.05782 196.72602,245.44152 C 194.74333,248.1737 193.7782,252.29576 193.77818,257.69834 C 193.77818,263.53022 195.0509,267.83544 197.57934,270.73091 C 200.14855,273.62636 204.24516,275.07509 209.91374,275.07509 C 217.13199,275.07509 222.22288,272.70962 225.1184,267.93822 C 223.65024,266.67417 222.37753,265.75308 221.31724,265.2231 C 220.2569,264.69286 219.12339,264.30808 217.98151,263.98189 C 217.53289,265.3276 216.64893,266.42457 215.34397,267.24004 C 214.03893,268.01504 212.38145,268.40366 210.30161,268.40366 C 207.16143,268.40366 204.86558,267.62208 203.39745,266.15399 C 201.92931,264.6859 201.11095,262.21418 201.07021,258.70681 C 202.8238,258.66609 204.59168,258.66994 206.34529,258.62924 C 208.09888,258.58828 209.89958,258.55165 211.77553,258.55165 C 213.85536,258.55165 216.1184,258.58828 218.52453,258.62924 C 220.9306,258.66994 223.26331,258.70272 225.50627,258.78438 C 225.71015,257.96867 225.85333,257.19118 225.89415,256.45714 C 225.9349,255.7231 225.97164,255.04776 225.97172,254.51777 C 225.97167,250.03184 224.58855,246.50002 221.93782,243.89002 C 219.32782,241.23932 215.62399,239.93371 210.68948,239.93371 C 210.21158,239.93371 209.67555,239.91132 209.21557,239.93371 z M 208.98284,246.37241 C 209.36984,246.34702 209.80666,246.37241 210.22404,246.37241 C 212.5893,246.37241 214.46364,246.86368 215.80942,247.92392 C 217.15517,248.98414 217.92876,250.53936 218.21424,252.5784 C 214.01376,252.61936 210.94033,252.65597 208.98284,252.65597 C 207.06611,252.65597 205.58059,252.65597 204.56107,252.65597 C 203.54153,252.61502 202.62876,252.5784 201.69081,252.5784 C 202.02916,248.74387 204.41617,246.67202 208.98284,246.37241 z "
       id="path4296"
       inkscape:export-filename="/home/laura/recursosgraficos/imagenes/logobeppofinalmasgrande.png"
       inkscape:export-xdpi="431.86496"
       inkscape:export-ydpi="431.86496" />
    <path
       style="fill:none;fill-opacity:1;fill-rule:evenodd;stroke:#e50049;stroke-width:2.4823935px;stroke-linecap:butt;stroke-linejoin:miter;stroke-opacity:1"
       d="M 244.67512,261.94002 C 244.67512,261.94002 244.8603,267.36413 251.43547,268.28684 M 273.97724,267.44171 C 281.35618,268.90068 284.28769,262.82421 284.1863,261.71713"
       id="path4320"
       sodipodi:nodetypes="cccz"
       inkscape:export-filename="/home/laura/recursosgraficos/imagenes/logobeppofinalmasgrande.png"
       inkscape:export-xdpi="431.86496"
       inkscape:export-ydpi="431.86496" />
    <path
       style="font-size:24.64226151px;font-style:normal;font-variant:normal;font-weight:bold;font-stretch:normal;text-align:start;line-height:125%;writing-mode:lr-tb;text-anchor:start;fill:#17ace6;fill-opacity:1;stroke:none;stroke-width:1px;stroke-linecap:butt;stroke-linejoin:miter;stroke-opacity:1;font-family:Teen"
       d="M 244.74482,240.01128 C 243.07911,240.10189 241.64317,240.37297 240.40063,240.78703 C 238.81013,241.27656 237.32467,242.36919 235.97887,244.12275 C 236.14198,242.57299 236.24835,241.30424 236.28917,240.24401 C 234.73948,240.44781 233.32755,240.62779 232.02255,240.70946 C 230.71753,240.75016 229.54723,240.70946 228.60927,240.70946 C 228.77238,243.40112 228.91557,246.37205 228.99714,249.55298 C 229.11947,252.69321 229.22988,255.69307 229.22985,258.62924 C 229.22985,262.34042 229.0827,266.30181 228.91957,270.42061 C 228.79723,274.53939 228.55162,278.74271 228.14381,283.06529 C 229.28569,282.98387 230.52554,282.95085 231.78983,282.91015 C 233.09482,282.91015 234.7195,282.86919 236.67704,282.91015 C 236.39157,281.1973 236.14201,279.50306 235.97887,277.79021 C 235.85651,276.11832 235.75011,273.82608 235.66857,270.80848 C 238.40088,273.82608 241.72395,275.30782 245.59815,275.30782 C 247.88186,275.30782 249.92816,274.88234 251.80413,274.06662 C 253.72081,273.25116 255.34556,272.15828 256.69134,270.73091 C 258.0371,269.26282 259.13776,267.49485 259.87191,265.45581 C 260.64671,263.41677 261.03545,261.1537 261.03552,258.70681 C 261.03547,255.93373 260.60595,253.38828 259.87191,251.10448 C 259.1786,248.82068 258.22901,246.9178 256.92406,245.28637 C 255.65981,243.61448 254.10473,242.30477 252.26957,241.40763 C 250.43442,240.46954 248.4209,240.01128 246.21875,240.01128 C 245.71916,240.01128 245.21121,239.98591 244.74482,240.01128 z M 245.44299,246.68271 C 245.71814,246.6673 246.00575,246.68271 246.29632,246.68271 C 249.06943,246.68271 251.18926,247.52983 252.65745,249.24269 C 254.12554,250.91458 254.82949,253.46437 254.82954,256.76744 C 254.82951,264.63837 252.25125,268.5588 247.07206,268.5588 C 245.97095,268.5588 244.8782,268.34607 243.73634,267.93822 C 242.63523,267.48964 241.5713,266.85527 240.63335,265.99884 C 239.73617,265.10171 239.03216,263.93126 238.46126,262.58555 C 237.89031,261.23984 237.60794,259.65186 237.60794,257.77591 C 237.60794,253.86094 238.27908,251.03311 239.62488,249.32026 C 240.84451,247.73111 242.78316,246.83171 245.44299,246.68271 z "
       id="path4308"
       inkscape:export-filename="/home/laura/recursosgraficos/imagenes/logobeppofinalmasgrande.png"
       inkscape:export-xdpi="431.86496"
       inkscape:export-ydpi="431.86496" />
    <path
       style="font-size:24.64226151px;font-style:normal;font-variant:normal;font-weight:bold;font-stretch:normal;text-align:start;line-height:125%;writing-mode:lr-tb;text-anchor:start;fill:#17ace6;fill-opacity:1;stroke:none;stroke-width:1px;stroke-linecap:butt;stroke-linejoin:miter;stroke-opacity:1;font-family:Teen"
       d="M 316.34636,240.08886 C 311.20648,240.26809 307.38862,241.79839 304.86529,244.66577 C 302.21449,247.68362 300.90898,252.63525 300.90898,259.40498 C 300.90898,270.17113 306.5975,275.54055 317.97543,275.54055 C 323.27695,275.54055 327.2672,273.9487 329.99953,270.80848 C 332.7726,267.62754 334.18852,263.17897 334.18857,257.38804 C 334.18854,245.88786 328.60643,240.08886 317.4324,240.08886 C 317.07811,240.08886 316.68903,240.07692 316.34636,240.08886 z M 316.03606,246.52757 C 316.55856,246.48772 317.15649,246.52757 317.7427,246.52757 C 323.85986,246.52757 326.89654,250.41139 326.89654,258.24137 C 326.89654,265.50062 323.75347,269.10183 317.4324,269.10183 C 311.27443,269.10183 308.20095,265.43074 308.20101,258.00864 C 308.20098,255.84722 308.3034,254.04649 308.58888,252.5784 C 308.87435,251.11032 309.4063,249.9071 310.14037,249.00996 C 310.87442,248.11283 311.86477,247.51507 313.08822,247.14817 C 313.92933,246.86778 314.88654,246.61524 316.03606,246.52757 z "
       id="path4298"
       inkscape:export-filename="/home/laura/recursosgraficos/imagenes/logobeppofinalmasgrande.png"
       inkscape:export-xdpi="431.86496"
       inkscape:export-ydpi="431.86496" />
    <path
       transform="matrix(1.610203,0,0,1.469457,-36.29942,-110.1854)"
       d="M 177.875 246.54968 A 1.8125 1.8125 0 1 1  174.25,246.54968 A 1.8125 1.8125 0 1 1  177.875 246.54968 z"
       sodipodi:ry="1.8125"
       sodipodi:rx="1.8125"
       sodipodi:cy="246.54968"
       sodipodi:cx="176.0625"
       id="path4316"
       style="fill:#e50049;fill-opacity:1;fill-rule:evenodd;stroke:#e50049;stroke-width:1px;stroke-linecap:butt;stroke-linejoin:miter;stroke-opacity:1"
       sodipodi:type="arc"
       inkscape:export-filename="/home/laura/recursosgraficos/imagenes/logobeppofinalmasgrande.png"
       inkscape:export-xdpi="431.86496"
       inkscape:export-ydpi="431.86496" />
    <path
       transform="matrix(1.610203,0,0,1.469457,-0.586958,-110.2093)"
       d="M 177.875 246.54968 A 1.8125 1.8125 0 1 1  174.25,246.54968 A 1.8125 1.8125 0 1 1  177.875 246.54968 z"
       sodipodi:ry="1.8125"
       sodipodi:rx="1.8125"
       sodipodi:cy="246.54968"
       sodipodi:cx="176.0625"
       id="path4318"
       style="fill:#e50049;fill-opacity:1;fill-rule:evenodd;stroke:#e50049;stroke-width:1px;stroke-linecap:butt;stroke-linejoin:miter;stroke-opacity:1"
       sodipodi:type="arc"
       inkscape:export-filename="/home/laura/recursosgraficos/imagenes/logobeppofinalmasgrande.png"
       inkscape:export-xdpi="431.86496"
       inkscape:export-ydpi="431.86496" />
    <path
       style="fill:#e50049;fill-opacity:1;fill-rule:evenodd;stroke:#e50049;stroke-width:2.4823935px;stroke-linecap:butt;stroke-linejoin:miter;stroke-opacity:1"
       d="M 348.25994,239.44086 L 348.25994,282.13976 L 348.25994,282.13976 L 348.25994,282.13976"
       id="path4322"
       inkscape:export-filename="/home/laura/recursosgraficos/imagenes/logobeppofinalmasgrande.png"
       inkscape:export-xdpi="431.86496"
       inkscape:export-ydpi="431.86496" />
    <text
       xml:space="preserve"
       style="font-size:29.78872108px;font-style:normal;font-variant:normal;font-weight:normal;font-stretch:normal;text-align:start;line-height:100%;writing-mode:lr-tb;text-anchor:start;fill:#17ace6;fill-opacity:1;stroke:none;stroke-width:1px;stroke-linecap:butt;stroke-linejoin:miter;stroke-opacity:1;font-family:Angostura"
       x="360.99695"
       y="267.24344"
       id="text4324"
       sodipodi:linespacing="100%"
       inkscape:export-filename="/home/laura/recursosgraficos/imagenes/logobeppofinalmasgrande.png"
       inkscape:export-xdpi="431.86496"
       inkscape:export-ydpi="431.86496"><tspan
         sodipodi:role="line"
         id="tspan4326"
         x="360.99695"
         y="267.24344"
         style="font-size:29.78872108px;font-style:normal;font-variant:normal;font-weight:normal;font-stretch:normal;text-align:start;line-height:100%;writing-mode:lr-tb;text-anchor:start;fill:#17ace6;fill-opacity:1;font-family:Angostura">educación interactiva</tspan></text>
    <path
       style="font-size:24.64226151px;font-style:normal;font-variant:normal;font-weight:bold;font-stretch:normal;text-align:start;line-height:125%;writing-mode:lr-tb;text-anchor:start;fill:#17ace6;fill-opacity:1;stroke:none;stroke-width:1px;stroke-linecap:butt;stroke-linejoin:miter;stroke-opacity:1;font-family:Teen"
       d="M 281.4377,240.01128 C 279.77198,240.10189 278.33605,240.37297 277.09351,240.78703 C 275.50301,241.27656 274.01755,242.36919 272.67175,244.12275 C 272.83486,242.57299 272.94123,241.30424 272.98205,240.24401 C 271.43236,240.44781 270.02038,240.62779 268.71544,240.70946 C 267.41041,240.75016 266.24011,240.70946 265.30214,240.70946 C 265.46526,243.40112 265.60847,246.37205 265.69002,249.55298 C 265.81235,252.69321 265.84519,255.69307 265.84516,258.62924 C 265.84516,262.34042 265.77558,266.30181 265.61245,270.42061 C 265.49011,274.53939 265.24452,278.74271 264.83669,283.06529 C 265.97857,282.98387 267.21845,282.95085 268.48271,282.91015 C 269.7877,282.91015 271.41238,282.86919 273.36992,282.91015 C 273.08445,281.1973 272.83488,279.50306 272.67175,277.79021 C 272.54939,276.11832 272.44299,273.82608 272.36145,270.80848 C 275.09376,273.82608 278.41678,275.30782 282.29102,275.30782 C 284.57474,275.30782 286.62106,274.88234 288.49701,274.06662 C 290.41369,273.25116 292.03844,272.15828 293.38422,270.73091 C 294.72998,269.26282 295.75309,267.49485 296.48721,265.45581 C 297.26201,263.41677 297.65078,261.1537 297.65083,258.70681 C 297.65078,255.93373 297.29883,253.38828 296.56478,251.10448 C 295.87148,248.82068 294.92192,246.9178 293.61694,245.28637 C 292.35269,243.61448 290.79761,242.30477 288.96245,241.40763 C 287.1273,240.46954 285.1138,240.01128 282.91163,240.01128 C 282.41204,240.01128 281.90408,239.98591 281.4377,240.01128 z M 281.51527,246.76029 C 281.95674,246.7175 282.42736,246.76029 282.91163,246.76029 C 285.68472,246.76029 287.80461,247.6074 289.27275,249.32026 C 290.74083,250.99215 291.44485,253.46412 291.44485,256.76744 C 291.44482,264.63837 288.86653,268.5588 283.68737,268.5588 C 282.58625,268.5588 281.41596,268.34582 280.27408,267.93822 C 279.17297,267.4894 278.18666,266.85527 277.24866,265.99884 C 276.35147,265.10171 275.64751,264.00883 275.07657,262.66312 C 274.50561,261.31742 274.22321,259.65186 274.22324,257.77591 C 274.22324,253.86094 274.89443,251.03311 276.24018,249.32026 C 277.37568,247.8407 279.13135,246.99148 281.51527,246.76029 z "
       id="path4300"
       inkscape:export-xdpi="431.86496"
       inkscape:export-ydpi="431.86496"
       inkscape:export-filename="/home/laura/recursosgraficos/imagenes/logobeppofinalmasgrande.png" />
  </g>
</svg>
